<svg clip-rule="evenodd" fill-rule="evenodd" stroke-linejoin="round" stroke-miterlimit="2" viewBox="0 0 510 510" xmlns="http://www.w3.org/2000/svg"><path d="m146.534 64.833c-1.709.358-3.479.547-5.294.547-14.192 0-25.714-11.523-25.714-25.715s11.522-25.714 25.714-25.714c14.193 0 25.715 11.522 25.715 25.714 0 6.592-2.486 12.607-6.57 17.16l49.867 86.372h-18.475zm216.932 0-45.243 78.364h-18.475l49.867-86.372c-4.084-4.553-6.57-10.568-6.57-17.16 0-14.192 11.522-25.714 25.715-25.714 14.192 0 25.714 11.522 25.714 25.714s-11.522 25.715-25.714 25.715c-1.815 0-3.585-.189-5.294-.547zm-44.901 399.044h145.576v-116.387h-14.234v-98.962h29.604c5.462 0 9.896 4.435 9.896 9.897v79.169c0 5.25-4.097 9.551-9.266 9.876v124.407c0 4.418-3.582 8-8 8h-153.576c-3.005 6.361-9.481 10.766-16.978 10.766h-33.982c-10.357 0-18.766-8.409-18.766-18.766s8.409-18.766 18.766-18.766h33.982c7.497 0 13.973 4.405 16.978 10.766zm-258.472-116.387h-29.604c-5.462 0-9.896-4.434-9.896-9.896v-79.169c0-5.462 4.434-9.897 9.896-9.897h29.604zm373.814 42.428c0 21.144-17.251 38.337-38.395 38.337h-173.447l-63.058 65.643c-1.979 2.06-5.012 2.711-7.662 1.645-2.65-1.067-4.386-3.637-4.386-6.494v-60.794h-32.471c-21.144 0-38.395-17.193-38.395-38.337v-192.325c0-21.144 17.251-38.396 38.395-38.396h281.024c21.144 0 38.395 17.252 38.395 38.396zm-124.783-63.836h-112.997c1.214 30.324 26.15 54.282 56.499 54.282 30.348 0 55.284-23.958 56.498-54.282zm-118.407-104.564c-13.421 0-24.317 10.896-24.317 24.317 0 13.422 10.896 24.318 24.317 24.318s24.318-10.896 24.318-24.318c0-13.421-10.897-24.317-24.318-24.317zm128.566 0c-13.421 0-24.318 10.896-24.318 24.317 0 13.422 10.897 24.318 24.318 24.318s24.317-10.896 24.317-24.318c0-13.421-10.896-24.317-24.317-24.317z"/></svg>