<?xml version="1.0" encoding="utf-8"?>
<!-- Generator: Adobe Illustrator 25.0.0, SVG Export Plug-In . SVG Version: 6.00 Build 0)  -->
<svg version="1.1" id="Livello_1" xmlns="http://www.w3.org/2000/svg" xmlns:xlink="http://www.w3.org/1999/xlink" x="0px" y="0px"
	 viewBox="0 0 902.38 902.38" style="enable-background:new 0 0 902.38 902.38;" xml:space="preserve">
<g>
	<path d="M713.36,785.87c0-2.58,0-4.51,0-6.44c0.01-62.66-0.05-125.32,0.16-187.99c0.02-5.3-1.27-8.34-6.15-10.91
		c-15.18-8-30.04-16.59-45.04-24.93c-1.41-0.78-2.91-1.4-5.33-2.55c0,2.63,0,4.52,0,6.42c0,78.33-0.05,156.66,0.12,234.98
		c0.01,4.95-1.42,7.07-6.24,7.99c-6.49,1.24-12.83,3.23-19.98,5.09c0-2.73,0-4.69,0-6.64c-0.01-103.83-0.03-207.65,0.02-311.48
		c0-3.38-0.28-5.83-4-7.51c-29.4-13.35-58.7-26.94-88.03-40.44c-1.79-0.82-3.65-1.49-6.62-2.69c0,2.75,0,4.78,0,6.81
		c0,127.32-0.03,254.65,0.13,381.97c0.01,4.96-1.46,6.8-6.23,7.94c-14.57,3.47-29.01,7.54-43.5,11.36
		c-2.22,0.59-4.47,1.08-7.52,1.81c0-2.57,0-4.5,0-6.43c-0.01-128.16,0.01-256.31-0.1-384.47c0-4.62,1.41-7.19,5.68-9.23
		c15.33-7.31,30.49-14.96,45.63-22.66c3.46-1.76,6.5-1.82,9.95-0.16c5.63,2.72,11.39,5.17,18.1,8.19c0-3.03,0-4.96,0-6.89
		c0.01-104.16,0.04-208.32-0.07-312.48c0-2.14-1.01-5.12-2.6-6.31c-28.42-21.25-56.99-42.29-85.55-63.37
		c-0.74-0.55-1.6-0.94-3.36-1.94c0,81.72,0,162.56,0,244.34c-8.86-4.24-16.74-8-24.62-11.78c-7.2-3.46-14.49-6.76-21.58-10.44
		c-13.33-6.91-27.11-7.25-41.27-3.31c-10.1,2.81-20.18,5.69-30.28,8.5c-1.41,0.39-2.87,0.59-5.12,1.03c0-2.01,0-3.6,0-5.2
		c0-50.33-0.05-100.66,0.15-150.99c0.01-2.33,1.65-5.49,3.55-6.86c37.06-26.64,74.31-53.02,111.4-79.62
		c4.32-3.1,7.43-3.28,11.86,0.06c31.95,24.04,64.14,47.76,96.1,71.78c1.87,1.41,3.4,4.58,3.42,6.95c0.2,39,0.22,77.99,0,116.99
		c-0.03,5.22,1.24,7.29,6.69,8.61c6.63,1.6,13.29,4.48,18.99,8.24c20.83,13.78,41.22,28.25,61.92,42.24
		c3.36,2.27,3.75,4.99,3.75,8.47c-0.05,60.16,0.03,120.32-0.17,180.48c-0.02,5.11,1.58,7.75,6.09,9.92
		c10.2,4.9,20.08,10.46,30.2,15.52c3.12,1.56,4.31,3.57,4.28,7.02c-0.12,17.16,0.04,34.33-0.12,51.49
		c-0.03,3.43,0.95,5.49,4.04,7.09c6.65,3.45,13.06,7.37,19.7,10.85c2.85,1.49,4.05,3.28,4.04,6.62
		c-0.1,65.83-0.11,131.65-0.01,197.48c0.01,3.51-0.98,5.27-4.48,5.74C718.93,784.49,716.56,785.17,713.36,785.87z M585.63,252.65
		c0,3.02,0,4.67,0,6.31c0.01,20.16,0.02,40.31,0.02,60.47c0.01,41.31,0.01,82.62,0,123.94c0,2.86-0.14,5.35,3.34,6.91
		c17.45,7.84,34.78,15.97,52.17,23.96c1.1,0.51,2.35,0.71,4.14,1.24c0-2.48,0-4.29,0-6.09c-0.01-57.3-0.06-114.61,0.08-171.91
		c0.01-3.64-1.61-5.37-4.22-7.13c-12.98-8.74-25.9-17.57-38.85-26.36C597.13,260.44,591.93,256.92,585.63,252.65z"/>
	<path d="M464.92,575.52c0,84.17,0.07,168.33-0.15,252.5c-0.02,6.01-1.54,12.22-3.48,17.96c-2.33,6.92-7.63,11.64-14.54,14.22
		c-12.79,4.77-25.6,9.48-38.43,14.15c-11.39,4.15-22.91,2.99-34.51,0.84c-53.04-9.83-106.09-19.57-159.14-29.35
		c-3.6-0.66-7.27-1.1-10.78-2.08c-15.64-4.35-25.3-16.77-26.66-34.81c-0.66-8.79-0.64-17.64-0.65-26.47
		c-0.04-131.33-0.07-262.66,0.03-393.99c0.01-12.46-0.12-25.07,1.6-37.36c2.22-15.91,12.03-26.32,27.68-30.79
		c57.14-16.34,114.28-32.71,171.45-48.95c11.76-3.34,23.31-2.82,34.51,2.8c12.2,6.13,24.67,11.71,36.85,17.88
		c12.62,6.4,16.12,17.94,16.16,30.96c0.1,39.33,0.07,78.67,0.08,118c0.01,44.83,0,89.67,0,134.5
		C464.94,575.52,464.93,575.52,464.92,575.52z M191.26,574.14c2.08-0.11,3.86-0.16,5.64-0.3c66.23-5.5,132.45-11.05,198.68-16.41
		c4.35-0.35,5.45-1.75,5.43-6.02c-0.16-42.82-0.1-85.64-0.11-128.46c-0.01-35.32,0.05-70.65-0.12-105.97
		c-0.05-10.24-2.72-19.57-12.52-25.03c-6.91-3.86-14.12-2.89-21.36-0.86c-41.83,11.7-83.68,23.38-125.52,35.06
		c-7.86,2.19-15.7,4.44-23.59,6.53c-17.86,4.74-26.83,16.11-26.85,34.73c-0.06,67.31-0.03,134.62-0.02,201.94
		C190.95,570.79,191.14,572.24,191.26,574.14z M190.96,586.79c0,2.28,0,4.07,0,5.87c0,67.83-0.01,135.66,0.01,203.49
		c0,2.33,0.02,4.68,0.28,6.99c1.7,14.84,10.35,24.75,23.84,27.08c51.86,8.92,103.72,17.78,155.59,26.63
		c12.53,2.14,23.57-4.02,27.64-16.04c1.62-4.79,2.47-10.08,2.47-15.14c0.15-83,0.1-165.99,0.1-248.99c0-1.74,0-3.48,0-5.88
		C330.5,576.16,260.97,581.46,190.96,586.79z"/>
	<path d="M525.93,400.69c-7.95-1.3-14.84-2.32-21.66-3.67c-0.99-0.2-2.34-2.01-2.35-3.09c-0.17-12.45-0.11-24.91-0.11-38.37
		c7.9,1.86,15.1,3.49,22.25,5.34c0.79,0.2,1.78,1.67,1.79,2.55C525.96,375.55,525.93,387.66,525.93,400.69z"/>
	<path d="M525.95,326.68c-7.99-2.09-14.89-3.78-21.7-5.78c-1.05-0.31-2.4-1.99-2.41-3.05c-0.17-12.27-0.11-24.54-0.11-38.09
		c8.26,2.73,15.7,5.15,23.1,7.7c0.54,0.19,1.07,1.32,1.08,2.02C525.97,301.57,525.95,313.66,525.95,326.68z"/>
	<path d="M501.82,204.31c8.22,3.56,15.37,6.59,22.43,9.8c0.81,0.37,1.62,1.78,1.63,2.72c0.07,11.65,0,23.3-0.07,34.96
		c0,0.25-0.4,0.49-1.02,1.21c-6.94-2.49-14.11-4.99-21.21-7.69c-0.81-0.31-1.67-1.74-1.68-2.66
		C501.78,230.35,501.82,218.06,501.82,204.31z"/>
	<path d="M525.62,181.52c-7.93-3.7-15.13-7-22.24-10.49c-0.81-0.4-1.53-1.86-1.54-2.84c-0.1-12.12-0.07-24.25-0.07-37.69
		c5.59,2.93,10,5.91,14.86,7.65c7.82,2.79,10.48,7.6,9.54,15.82c-0.83,7.23-0.14,14.63-0.16,21.95
		C526,177.5,525.79,179.08,525.62,181.52z"/>
	<path d="M595.44,683.98c-6.86,0-13,0.14-19.12-0.14c-1.03-0.05-2.82-1.86-2.84-2.88c-0.2-11.62-0.13-23.24-0.13-35.92
		c7.18,0.97,13.82,1.8,20.42,2.88c0.68,0.11,1.59,1.73,1.6,2.65C595.48,661.69,595.44,672.79,595.44,683.98z"/>
	<path d="M594.33,615.75c-6.06-1.17-12.4-2.32-18.7-3.7c-0.86-0.19-2.13-1.45-2.14-2.22c-0.14-11.74-0.1-23.47-0.1-36.24
		c7.37,2.08,13.87,3.85,20.31,5.84c0.8,0.25,1.73,1.7,1.73,2.6c0.04,10.79-0.09,21.59-0.2,32.38
		C595.24,614.68,594.89,614.95,594.33,615.75z"/>
	<path d="M573.42,505.09c7.28,2.91,13.45,5.29,19.54,7.9c1.02,0.44,2.34,1.79,2.35,2.74c0.16,11.09,0.11,22.19,0.11,34.22
		c-7.2-2.39-13.77-4.51-20.29-6.8c-0.73-0.26-1.63-1.43-1.64-2.18C573.39,529.38,573.42,517.79,573.42,505.09z"/>
	<path d="M692.62,739.57c-5.44,0-10.19,0-15.34,0c0-9.33,0-18.55,0-28.64c4.48,0.4,8.87,0.68,13.22,1.27
		c0.79,0.11,2.01,1.45,2.02,2.24C692.67,722.7,692.62,730.97,692.62,739.57z"/>
	<path d="M677.2,687.31c0-9.75,0-18.81,0-28.77c4.85,1.18,9.28,2.15,13.62,3.42c0.79,0.23,1.74,1.66,1.76,2.55
		c0.14,8.09,0.08,16.19,0.08,25.06C687.19,688.77,682.37,688.07,677.2,687.31z"/>
	<path d="M677,607.56c5.37,1.96,9.73,3.44,13.98,5.2c0.81,0.33,1.62,1.77,1.64,2.71c0.13,7.94,0.07,15.88,0.07,24.75
		c-5.16-1.43-9.6-2.55-13.94-3.96c-0.78-0.25-1.66-1.69-1.68-2.59C676.95,625.39,677,617.09,677,607.56z"/>
	<path d="M608.8,395.13c6.15,2.47,11.53,4.54,16.82,6.84c0.83,0.36,1.72,1.73,1.73,2.64c0.12,9.78,0.08,19.56,0.08,30.21
		c-6.13-1.85-11.49-3.4-16.8-5.14c-0.75-0.25-1.74-1.36-1.75-2.07C608.77,417.04,608.8,406.47,608.8,395.13z"/>
	<path d="M608.64,333.77c6.35,3.13,11.45,5.54,16.43,8.17c1,0.53,2.2,1.89,2.22,2.89c0.17,9.63,0.1,19.25,0.1,29.94
		c-6.29-2.71-11.88-5.04-17.38-7.56c-0.68-0.31-1.29-1.6-1.3-2.44C608.61,354.81,608.64,344.84,608.64,333.77z"/>
	<path d="M312.22,442.43c-0.49,8.19-3.49,16.79-11.24,23.1c-12.88,10.48-30.13,4.51-33.71-11.67c-2.18-9.85,0.08-18.82,6.39-26.66
		c6.27-7.78,16.4-11.13,24.42-8.33C306.57,421.83,312.14,430.53,312.22,442.43z"/>
	<path d="M367.04,644.81c0.04,14.15-10.33,25.55-23.29,25.59c-12.87,0.05-22.87-10.65-22.98-24.57
		c-0.12-14.51,10.16-26.1,23.26-26.25C356.71,619.44,367,630.73,367.04,644.81z"/>
	<path d="M289.46,686.05c13.95-0.01,24.81,13.94,22.42,28.82c-2.21,13.78-13.39,22.7-25.35,20.22c-13.22-2.74-21.33-16.73-17.9-30.9
		C271.31,693.16,279.46,686.06,289.46,686.05z"/>
	<path d="M260.33,772.23c-0.02,12.8-7.22,22.07-17.34,23.45c-9.95,1.36-19.77-5.79-22.93-16.68c-3.9-13.45,2.24-27.22,13.53-30.33
		c12.02-3.31,24.01,5.42,26.35,19.24C260.24,769.7,260.27,771.54,260.33,772.23z"/>
</g>
</svg>
